<?xml version="1.0" encoding="UTF-8" standalone="no"?>
<svg
   xmlns:dc="http://purl.org/dc/elements/1.1/"
   xmlns:cc="http://creativecommons.org/ns#"
   xmlns:rdf="http://www.w3.org/1999/02/22-rdf-syntax-ns#"
   xmlns:svg="http://www.w3.org/2000/svg"
   xmlns="http://www.w3.org/2000/svg"
   xmlns:sodipodi="http://sodipodi.sourceforge.net/DTD/sodipodi-0.dtd"
   xmlns:inkscape="http://www.inkscape.org/namespaces/inkscape"
   sodipodi:docname="dibujo.svg"
   inkscape:version="1.0 (4035a4f, 2020-05-01)"
   id="svg8"
   version="1.1"
   viewBox="0 0 210 297"
   height="297mm"
   width="210mm">
  <defs
     id="defs2" />
  <sodipodi:namedview
     inkscape:window-maximized="0"
     inkscape:window-y="0"
     inkscape:window-x="0"
     inkscape:window-height="900"
     inkscape:window-width="1440"
     showgrid="false"
     inkscape:document-rotation="0"
     inkscape:current-layer="layer1"
     inkscape:document-units="mm"
     inkscape:cy="562.77792"
     inkscape:cx="397.22208"
     inkscape:zoom="3.959798"
     inkscape:pageshadow="2"
     inkscape:pageopacity="0.0"
     borderopacity="1.0"
     bordercolor="#666666"
     pagecolor="#ffffff"
     id="base" />
  <metadata
     id="metadata5">
    <rdf:RDF>
      <cc:Work
         rdf:about="">
        <dc:format>image/svg+xml</dc:format>
        <dc:type
           rdf:resource="http://purl.org/dc/dcmitype/StillImage" />
        <dc:title></dc:title>
      </cc:Work>
    </rdf:RDF>
  </metadata>
  <g
     id="layer1"
     inkscape:groupmode="layer"
     inkscape:label="Capa 1">
    <g
       style="fill:#ffffff"
       transform="matrix(0.26458333,0,0,0.26458333,81.743494,139.42251)"
       id="about">
      <path
         style="fill:#ffffff"
         d="M 16,16 A 7,7 0 1 0 9,9 7,7 0 0 0 16,16 Z M 16,4 a 5,5 0 1 1 -5,5 5,5 0 0 1 5,-5 z"
         id="path421" />
      <path
         style="fill:#ffffff"
         d="M 17,18 H 15 A 11,11 0 0 0 4,29 1,1 0 0 0 5,30 H 27 A 1,1 0 0 0 28,29 11,11 0 0 0 17,18 Z M 6.06,28 A 9,9 0 0 1 15,20 h 2 a 9,9 0 0 1 8.94,8 z"
         id="path423" />
    </g>
  </g>
</svg>
