<?xml version="1.0" encoding="UTF-8" standalone="no"?>
<svg
   xmlns:dc="http://purl.org/dc/elements/1.1/"
   xmlns:cc="http://creativecommons.org/ns#"
   xmlns:rdf="http://www.w3.org/1999/02/22-rdf-syntax-ns#"
   xmlns:svg="http://www.w3.org/2000/svg"
   xmlns="http://www.w3.org/2000/svg"
   xmlns:sodipodi="http://sodipodi.sourceforge.net/DTD/sodipodi-0.dtd"
   xmlns:inkscape="http://www.inkscape.org/namespaces/inkscape"
   sodipodi:docname="message_icon_neo.svg"
   inkscape:version="1.0 (4035a4f, 2020-05-01)"
   id="svg1342"
   version="1.1"
   viewBox="0 0 6.6145833 6.6145833"
   height="25"
   width="25">
  <defs
     id="defs1336" />
  <sodipodi:namedview
     inkscape:window-maximized="0"
     inkscape:window-y="28"
     inkscape:window-x="0"
     inkscape:window-height="872"
     inkscape:window-width="1440"
     units="px"
     showgrid="false"
     inkscape:document-rotation="0"
     inkscape:current-layer="layer3"
     inkscape:document-units="px"
     inkscape:cy="12.783854"
     inkscape:cx="13.075831"
     inkscape:zoom="22.4"
     inkscape:pageshadow="2"
     inkscape:pageopacity="0.0"
     borderopacity="1.0"
     bordercolor="#666666"
     pagecolor="#ffffff"
     id="base" />
  <metadata
     id="metadata1339">
    <rdf:RDF>
      <cc:Work
         rdf:about="">
        <dc:format>image/svg+xml</dc:format>
        <dc:type
           rdf:resource="http://purl.org/dc/dcmitype/StillImage" />
        <dc:title></dc:title>
      </cc:Work>
    </rdf:RDF>
  </metadata>
  <g
     sodipodi:insensitive="true"
     style="display:inline"
     id="layer1"
     inkscape:groupmode="layer"
     inkscape:label="Capa 1">
    <ellipse
       ry="3.0922999"
       rx="3.0922997"
       cy="3.3072915"
       cx="3.3072917"
       id="path18"
       style="display:inline;opacity:1;fill:#ffffff;fill-opacity:1;stroke:#ffebeb;stroke-width:0.429983;stroke-miterlimit:4;stroke-dasharray:none;stroke-opacity:1;stop-color:#000000" />
  </g>
  <g
     sodipodi:insensitive="true"
     style="display:inline"
     inkscape:label="Capa 3"
     id="layer4"
     inkscape:groupmode="layer">
    <rect
       ry="0.094494045"
       y="2.1711245"
       x="1.6077576"
       height="1.9393665"
       width="3.2586861"
       id="rect2338"
       style="fill:#6300ff;fill-opacity:1;stroke:none;stroke-width:0.79375;stop-color:#000000" />
    <rect
       rx="0"
       ry="0"
       y="1.9919214"
       x="1.7781166"
       height="0.17920299"
       width="3.0883272"
       id="rect2340"
       style="fill:#6300ff;fill-opacity:1;stroke:none;stroke-width:0.79375;stop-color:#000000" />
    <rect
       ry="0.094494089"
       y="3.9839864"
       x="3.8754082"
       height="0.69505692"
       width="0.34468651"
       id="rect2342"
       style="fill:#6300ff;fill-opacity:1;stroke:none;stroke-width:0.79375;stop-color:#000000" />
  </g>
  <g
     style="display:inline"
     inkscape:label="Capa 2"
     id="layer3"
     inkscape:groupmode="layer">
    <g
       style="fill:#6300ff;fill-opacity:1"
       transform="matrix(0.00869721,0,0,0.00857968,1.0720142,1.2892977)"
       data-name="1"
       id="_1">
      <path
         style="fill:#6300ff;fill-opacity:1"
         d="m 364,450 a 15,15 0 0 1 -11.29,-5.12 L 273.5,354.34 H 118.64 A 64.58,64.58 0 0 1 54.14,289.83 V 112.51 A 64.58,64.58 0 0 1 118.64,48 h 273 a 64.58,64.58 0 0 1 64.5,64.51 v 177.32 a 64.58,64.58 0 0 1 -64.5,64.51 H 379 V 435 a 15,15 0 0 1 -15,15 z M 118.64,78 a 34.55,34.55 0 0 0 -34.5,34.51 v 177.32 a 34.55,34.55 0 0 0 34.5,34.51 H 280.3 a 15,15 0 0 1 11.29,5.12 L 349,395.09 v -55.75 a 15,15 0 0 1 15,-15 h 27.59 a 34.55,34.55 0 0 0 34.5,-34.51 V 112.51 A 34.55,34.55 0 0 0 391.63,78 Z"
         id="path1752" />
      <path
         style="fill:#000000;fill-opacity:1"
         d="M 199.63,264 A 15.13,15.13 0 0 1 189,259.61 c -0.34,-0.35 -0.67,-0.72 -1,-1.1 a 14.34,14.34 0 0 1 -0.87,-1.18 q -0.41,-0.61 -0.75,-1.26 c -0.23,-0.43 -0.44,-0.88 -0.63,-1.33 -0.19,-0.45 -0.35,-0.92 -0.5,-1.38 -0.15,-0.46 -0.26,-1 -0.36,-1.43 -0.1,-0.43 -0.17,-1 -0.22,-1.45 a 14.66,14.66 0 0 1 -0.07,-1.48 14.33,14.33 0 0 1 0.07,-1.47 c 0.05,-0.49 0.13,-1 0.22,-1.46 0.09,-0.46 0.22,-1 0.36,-1.42 0.14,-0.42 0.31,-0.94 0.5,-1.39 0.19,-0.45 0.4,-0.89 0.63,-1.32 a 14.6,14.6 0 0 1 0.75,-1.27 c 0.27,-0.4 0.56,-0.8 0.87,-1.18 0.31,-0.38 0.65,-0.75 1,-1.1 a 15.15,15.15 0 0 1 12.08,-4.32 c 0.49,0.05 1,0.13 1.46,0.22 0.46,0.09 1,0.22 1.42,0.36 0.42,0.14 0.94,0.31 1.39,0.5 0.45,0.19 0.89,0.4 1.32,0.63 0.43,0.23 0.86,0.48 1.27,0.75 0.41,0.27 0.8,0.56 1.18,0.87 0.38,0.31 0.75,0.65 1.09,1 0.34,0.35 0.68,0.72 1,1.1 0.32,0.38 0.6,0.78 0.87,1.18 a 14.6,14.6 0 0 1 0.75,1.27 q 0.35,0.65 0.63,1.32 c 0.19,0.45 0.35,0.92 0.5,1.39 0.15,0.47 0.26,0.94 0.36,1.42 0.1,0.48 0.17,1 0.22,1.46 0.05,0.46 0.07,1 0.07,1.47 0,0.47 0,1 -0.07,1.48 -0.07,0.48 -0.13,1 -0.22,1.45 -0.09,0.45 -0.22,1 -0.36,1.43 -0.14,0.43 -0.31,0.93 -0.5,1.38 -0.19,0.45 -0.4,0.9 -0.63,1.33 -0.23,0.43 -0.48,0.85 -0.75,1.26 -0.27,0.41 -0.57,0.8 -0.87,1.18 -0.3,0.38 -0.65,0.75 -1,1.1 -0.35,0.35 -0.71,0.68 -1.09,1 -0.38,0.32 -0.78,0.6 -1.18,0.87 -0.4,0.27 -0.84,0.52 -1.27,0.75 -0.43,0.23 -0.87,0.44 -1.32,0.63 -0.45,0.19 -0.92,0.35 -1.39,0.5 -0.47,0.15 -0.94,0.26 -1.42,0.36 -0.48,0.1 -1,0.17 -1.46,0.22 -0.46,0.05 -0.96,0.05 -1.45,0.05 z"
         id="path1754" />
      <path
         style="fill:#000000;fill-opacity:1"
         d="m 310.64,264 c -0.49,0 -1,0 -1.47,-0.07 -0.47,-0.07 -1,-0.13 -1.46,-0.22 -0.46,-0.09 -1,-0.22 -1.43,-0.36 -0.43,-0.14 -0.93,-0.31 -1.38,-0.5 -0.45,-0.19 -0.89,-0.4 -1.32,-0.63 a 14.6,14.6 0 0 1 -1.27,-0.75 c -0.4,-0.27 -0.8,-0.56 -1.18,-0.87 -0.38,-0.31 -0.75,-0.65 -1.1,-1 -0.35,-0.35 -0.68,-0.72 -1,-1.1 -0.32,-0.38 -0.6,-0.78 -0.87,-1.18 a 14.6,14.6 0 0 1 -0.75,-1.27 q -0.35,-0.65 -0.63,-1.32 c -0.19,-0.45 -0.35,-0.92 -0.5,-1.38 -0.15,-0.46 -0.26,-1 -0.36,-1.43 -0.1,-0.43 -0.17,-1 -0.22,-1.45 -0.05,-0.45 -0.07,-1 -0.07,-1.48 0,-0.48 0,-1 0.07,-1.48 0.07,-0.48 0.13,-1 0.22,-1.45 0.09,-0.45 0.22,-1 0.36,-1.43 0.14,-0.43 0.31,-0.93 0.5,-1.38 0.19,-0.45 0.4,-0.9 0.63,-1.33 0.23,-0.43 0.48,-0.85 0.75,-1.26 a 14.34,14.34 0 0 1 0.87,-1.18 c 0.31,-0.38 0.65,-0.75 1,-1.1 0.35,-0.35 0.72,-0.68 1.1,-1 0.38,-0.32 0.78,-0.6 1.18,-0.87 a 14.6,14.6 0 0 1 1.27,-0.75 q 0.65,-0.34 1.32,-0.63 c 0.45,-0.19 0.92,-0.35 1.38,-0.5 0.46,-0.15 1,-0.26 1.43,-0.36 0.43,-0.1 1,-0.17 1.46,-0.22 a 16.15,16.15 0 0 1 2.95,0 c 0.48,0.05 1,0.13 1.45,0.22 0.45,0.09 1,0.22 1.43,0.36 0.43,0.14 0.93,0.31 1.38,0.5 0.45,0.19 0.89,0.4 1.32,0.63 a 14.6,14.6 0 0 1 1.27,0.75 c 0.4,0.27 0.8,0.56 1.18,0.87 0.38,0.31 0.75,0.65 1.1,1 0.35,0.35 0.68,0.72 1,1.1 a 14.34,14.34 0 0 1 0.87,1.18 q 0.4,0.62 0.75,1.26 c 0.23,0.43 0.44,0.88 0.63,1.33 0.19,0.45 0.35,0.92 0.5,1.38 0.15,0.46 0.26,1 0.36,1.43 0.1,0.43 0.17,1 0.22,1.45 a 15.68,15.68 0 0 1 0,3 c -0.05,0.48 -0.13,1 -0.22,1.45 -0.09,0.45 -0.22,1 -0.36,1.43 -0.14,0.43 -0.31,0.93 -0.5,1.38 -0.19,0.45 -0.4,0.89 -0.63,1.32 a 14.6,14.6 0 0 1 -0.75,1.27 c -0.27,0.4 -0.56,0.8 -0.87,1.18 -0.31,0.38 -0.65,0.75 -1,1.1 -0.35,0.35 -0.72,0.68 -1.1,1 -0.38,0.32 -0.78,0.6 -1.18,0.87 a 14.6,14.6 0 0 1 -1.27,0.75 q -0.65,0.34 -1.32,0.63 c -0.45,0.19 -0.92,0.35 -1.38,0.5 -0.46,0.15 -0.95,0.26 -1.43,0.36 -0.48,0.1 -1,0.17 -1.45,0.22 -0.45,0.05 -0.99,0.03 -1.48,0.03 z"
         id="path1756" />
      <path
         style="fill:#000000;fill-opacity:1"
         d="m 255.13,264 a 14.6,14.6 0 0 1 -1.47,-0.07 c -0.49,-0.05 -1,-0.13 -1.46,-0.22 -0.46,-0.09 -0.95,-0.22 -1.42,-0.36 -0.47,-0.14 -0.93,-0.31 -1.38,-0.5 -0.45,-0.19 -0.9,-0.4 -1.33,-0.63 a 15.58,15.58 0 0 1 -2.45,-1.62 c -0.38,-0.31 -0.75,-0.65 -1.09,-1 a 14.67,14.67 0 0 1 -1,-1.1 c -0.31,-0.38 -0.61,-0.78 -0.88,-1.18 a 14.6,14.6 0 0 1 -0.75,-1.27 q -0.34,-0.65 -0.63,-1.32 c -0.18,-0.45 -0.35,-0.92 -0.49,-1.39 a 13.41,13.41 0 0 1 -0.36,-1.42 14.46,14.46 0 0 1 -0.29,-2.93 14.66,14.66 0 0 1 0.07,-1.48 14.51,14.51 0 0 1 0.22,-1.45 14.24,14.24 0 0 1 0.36,-1.43 c 0.14,-0.46 0.31,-0.93 0.49,-1.38 0.18,-0.45 0.4,-0.89 0.63,-1.32 a 14.6,14.6 0 0 1 0.75,-1.27 c 0.27,-0.4 0.57,-0.8 0.88,-1.18 a 14.67,14.67 0 0 1 1,-1.1 c 0.34,-0.34 0.71,-0.68 1.09,-1 a 15.58,15.58 0 0 1 2.45,-1.62 c 0.43,-0.23 0.88,-0.44 1.33,-0.63 0.45,-0.19 0.91,-0.35 1.38,-0.5 0.47,-0.15 0.95,-0.26 1.42,-0.36 0.47,-0.1 1,-0.17 1.46,-0.22 a 16.15,16.15 0 0 1 3,0 c 0.49,0.05 1,0.13 1.45,0.22 0.45,0.09 1,0.22 1.43,0.36 0.43,0.14 0.93,0.31 1.38,0.5 0.45,0.19 0.9,0.4 1.33,0.63 0.43,0.23 0.85,0.48 1.26,0.75 a 14.5,14.5 0 0 1 1.19,0.87 c 0.38,0.31 0.75,0.65 1.09,1 a 14.67,14.67 0 0 1 1,1.1 c 0.31,0.38 0.6,0.78 0.88,1.18 a 14.6,14.6 0 0 1 0.75,1.27 13.2,13.2 0 0 1 0.62,1.32 14.25,14.25 0 0 1 0.5,1.38 c 0.14,0.47 0.26,1 0.36,1.43 a 14.51,14.51 0 0 1 0.22,1.45 14.66,14.66 0 0 1 0.07,1.48 14.46,14.46 0 0 1 -0.29,2.93 c -0.1,0.48 -0.22,1 -0.36,1.42 a 13.53,13.53 0 0 1 -0.5,1.39 13.2,13.2 0 0 1 -0.62,1.32 c -0.23,0.43 -0.48,0.86 -0.75,1.27 -0.27,0.41 -0.57,0.8 -0.88,1.18 a 14.67,14.67 0 0 1 -1,1.1 c -0.34,0.34 -0.71,0.68 -1.09,1 a 14.5,14.5 0 0 1 -1.19,0.87 q -0.61,0.4 -1.26,0.75 c -0.43,0.23 -0.88,0.44 -1.33,0.63 -0.45,0.19 -0.91,0.35 -1.38,0.5 -0.47,0.15 -0.95,0.26 -1.43,0.36 -0.48,0.1 -1,0.17 -1.45,0.22 a 14.66,14.66 0 0 1 -1.53,0.07 z"
         id="path1758" />
    </g>
  </g>
</svg>
