<?xml version="1.0" encoding="UTF-8" standalone="no"?>
<svg
   xmlns:dc="http://purl.org/dc/elements/1.1/"
   xmlns:cc="http://creativecommons.org/ns#"
   xmlns:rdf="http://www.w3.org/1999/02/22-rdf-syntax-ns#"
   xmlns:svg="http://www.w3.org/2000/svg"
   xmlns="http://www.w3.org/2000/svg"
   xmlns:sodipodi="http://sodipodi.sourceforge.net/DTD/sodipodi-0.dtd"
   xmlns:inkscape="http://www.inkscape.org/namespaces/inkscape"
   sodipodi:docname="notification_bell_icon_alt.svg"
   inkscape:version="1.0 (4035a4f, 2020-05-01)"
   id="svg2510"
   version="1.1"
   viewBox="0 0 13.229167 13.229167"
   height="50"
   width="50">
  <defs
     id="defs2504" />
  <sodipodi:namedview
     inkscape:window-maximized="0"
     inkscape:window-y="28"
     inkscape:window-x="0"
     inkscape:window-height="872"
     inkscape:window-width="1440"
     units="px"
     showgrid="false"
     inkscape:document-rotation="0"
     inkscape:current-layer="layer1"
     inkscape:document-units="mm"
     inkscape:cy="28.365047"
     inkscape:cx="18.751569"
     inkscape:zoom="11.2"
     inkscape:pageshadow="2"
     inkscape:pageopacity="0.0"
     borderopacity="1.0"
     bordercolor="#666666"
     pagecolor="#ffffff"
     id="base" />
  <metadata
     id="metadata2507">
    <rdf:RDF>
      <cc:Work
         rdf:about="">
        <dc:format>image/svg+xml</dc:format>
        <dc:type
           rdf:resource="http://purl.org/dc/dcmitype/StillImage" />
        <dc:title></dc:title>
      </cc:Work>
    </rdf:RDF>
  </metadata>
  <g
     id="layer1"
     inkscape:groupmode="layer"
     inkscape:label="Capa 1">
    <g
       transform="matrix(1.82271,0,0,1.9303395,0.18329697,0.46144004)"
       style="fill:#ffd5d5"
       id="layer6"
       inkscape:label="Capa 2">
      <g
         style="fill:#ffd5d5;fill-opacity:1"
         id="g4578"
         transform="matrix(0.13856116,0,0,0.1370657,1.4576611,1.1444083)">
        <path
           id="path4567"
           fill-rule="evenodd"
           fill="#000000"
           d="M 11,4.54125 C 8.11878,5.68927 6.0772,8.44184 6.07706,11.6767 v 6.3035 L 3.31773,20.658 C 3.12222,20.8387 3,21.0961 3,21.3818 v 0.1296 c 0,1.0931 0.89543,1.9792 2,1.9792 h 5.0255 C 10.2508,25.4654 11.9443,27 14,27 c 2.0557,0 3.7492,-1.5346 3.9745,-3.5094 H 23 c 1.1046,0 2,-0.8861 2,-1.9792 V 21.382 c 10e-5,-0.2857 -0.1221,-0.5432 -0.3177,-0.724 L 21.9232,17.9805 V 11.677 C 21.9231,8.44206 19.8814,5.6891 17,4.54114 V 3.47401 C 17,2.18459 15.9963,1.54919 15.6019,1.354 15.0885,1.09988 14.5194,1 14,1 13.4806,1 12.9115,1.09988 12.3981,1.354 12.0037,1.54919 11,2.18459 11,3.47401 Z M 14.927,3.96881 C 14.9218,3.98589 14.9164,4.00272 14.9108,4.0193 14.6118,3.98595 14.308,3.96881 14.0001,3.96881 c -0.3079,0 -0.6118,0.01715 -0.9108,0.05052 C 13.0836,4.00274 13.0782,3.9859 13.073,3.96881 H 13 v -0.4948 c 0,-0.27325 0.4473,-0.4948 1,-0.4948 0.5527,0 1,0.22155 1,0.4948 v 0.4948 z m 1.0213,19.52179 h -3.8966 c 0.2055,0.8768 0.9998,1.5302 1.9483,1.5302 0.9485,0 1.7428,-0.6534 1.9483,-1.5302 z M 8.07706,11.6767 c 1.6e-4,-3.14574 2.63344,-5.72868 5.92304,-5.72868 3.2897,0 5.923,2.58294 5.9231,5.72868 z m 0,0 H 19.9232 v 6.3038 c 0,0.5316 0.2161,1.0409 0.5997,1.4131 l 2.1823,2.1178 H 5.29484 l 2.47544,-2.4023 c 0.18873,-0.1795 0.30678,-0.4319 0.30678,-0.7133 z"
           clip-rule="evenodd"
           style="fill:#ffd5d5;fill-opacity:1" />
      </g>
    </g>
  </g>
</svg>
