<?xml version="1.0" encoding="UTF-8" standalone="no"?>
<svg
   xmlns:dc="http://purl.org/dc/elements/1.1/"
   xmlns:cc="http://creativecommons.org/ns#"
   xmlns:rdf="http://www.w3.org/1999/02/22-rdf-syntax-ns#"
   xmlns:svg="http://www.w3.org/2000/svg"
   xmlns="http://www.w3.org/2000/svg"
   xmlns:sodipodi="http://sodipodi.sourceforge.net/DTD/sodipodi-0.dtd"
   xmlns:inkscape="http://www.inkscape.org/namespaces/inkscape"
   width="25"
   height="25"
   viewBox="0 0 6.6145832 6.6145835"
   version="1.1"
   id="svg8"
   inkscape:version="1.0 (4035a4f, 2020-05-01)"
   sodipodi:docname="profile_icon_neo.svg">
  <defs
     id="defs2" />
  <sodipodi:namedview
     units="px"
     id="base"
     pagecolor="#ffffff"
     bordercolor="#666666"
     borderopacity="1.0"
     inkscape:pageopacity="0.0"
     inkscape:pageshadow="2"
     inkscape:zoom="7.919596"
     inkscape:cx="32.203993"
     inkscape:cy="39.271688"
     inkscape:document-units="mm"
     inkscape:current-layer="g937"
     inkscape:document-rotation="0"
     showgrid="false"
     inkscape:window-width="1440"
     inkscape:window-height="872"
     inkscape:window-x="0"
     inkscape:window-y="28"
     inkscape:window-maximized="0" />
  <metadata
     id="metadata5">
    <rdf:RDF>
      <cc:Work
         rdf:about="">
        <dc:format>image/svg+xml</dc:format>
        <dc:type
           rdf:resource="http://purl.org/dc/dcmitype/StillImage" />
        <dc:title></dc:title>
      </cc:Work>
    </rdf:RDF>
  </metadata>
  <g
     inkscape:label="Capa 2"
     id="layer2"
     inkscape:groupmode="layer" />
  <g
     style="display:inline"
     inkscape:label="Capa 1"
     inkscape:groupmode="layer"
     id="layer1">
    <g
       inkscape:export-ydpi="96"
       inkscape:export-xdpi="96"
       transform="matrix(0.53747307,0,0,0.52573332,-49.001593,-75.231916)"
       id="g937">
      <ellipse
         style="display:inline;opacity:1;fill:#ffffff;fill-opacity:1;stroke:#ffebeb;stroke-width:0.80889;stroke-miterlimit:4;stroke-dasharray:none;stroke-opacity:1;stop-color:#000000"
         id="path18"
         cx="97.32373"
         cy="149.38982"
         rx="5.7489638"
         ry="5.8863711" />
      <g
         style="fill:#6300ff;fill-opacity:1"
         transform="matrix(0.26458333,0,0,0.26458333,93.269492,145.06857)"
         id="about">
        <path
           style="fill:#6300ff;fill-opacity:1"
           d="M 16,16 A 7,7 0 1 0 9,9 7,7 0 0 0 16,16 Z M 16,4 a 5,5 0 1 1 -5,5 5,5 0 0 1 5,-5 z"
           id="path421" />
        <path
           style="fill:#6300ff;fill-opacity:1"
           d="M 17,18 H 15 A 11,11 0 0 0 4,29 1,1 0 0 0 5,30 H 27 A 1,1 0 0 0 28,29 11,11 0 0 0 17,18 Z M 6.06,28 A 9,9 0 0 1 15,20 h 2 a 9,9 0 0 1 8.94,8 z"
           id="path423" />
      </g>
      <ellipse
         style="opacity:1;fill:#6300ff;fill-opacity:1;stroke:none;stroke-width:0.872278;stroke-miterlimit:4;stroke-dasharray:none;stroke-opacity:1;stop-color:#000000"
         id="path897"
         cx="97.419739"
         cy="147.49936"
         rx="1.2695303"
         ry="1.4699824" />
      <rect
         style="opacity:1;fill:#6300ff;fill-opacity:1;stroke:none;stroke-width:0.79375;stroke-miterlimit:4;stroke-dasharray:none;stroke-opacity:1;stop-color:#000000"
         id="rect907"
         width="2.7798548"
         height="2.3716567"
         x="96.083397"
         y="150.23888"
         ry="0" />
      <path
         style="fill:#6300ff;fill-opacity:1;stroke:none;stroke-width:0.311532px;stroke-linecap:butt;stroke-linejoin:miter;stroke-opacity:1"
         d="m 96.083397,152.61053 -1.678252,-0.13363 1.678252,-2.23803 z"
         id="path911" />
      <path
         id="path911-5"
         d="m 98.688254,152.61053 1.444526,-0.13363 -1.444526,-2.23803 z"
         style="display:inline;fill:#6300ff;fill-opacity:1;stroke:none;stroke-width:0.289026px;stroke-linecap:butt;stroke-linejoin:miter;stroke-opacity:1" />
    </g>
  </g>
</svg>
