<?xml version="1.0" encoding="UTF-8" standalone="no"?>
<svg
   xmlns:dc="http://purl.org/dc/elements/1.1/"
   xmlns:cc="http://creativecommons.org/ns#"
   xmlns:rdf="http://www.w3.org/1999/02/22-rdf-syntax-ns#"
   xmlns:svg="http://www.w3.org/2000/svg"
   xmlns="http://www.w3.org/2000/svg"
   xmlns:sodipodi="http://sodipodi.sourceforge.net/DTD/sodipodi-0.dtd"
   xmlns:inkscape="http://www.inkscape.org/namespaces/inkscape"
   sodipodi:docname="profile_icon_alt.svg"
   inkscape:version="1.0 (4035a4f, 2020-05-01)"
   id="svg1268"
   version="1.1"
   viewBox="0 0 6.6145832 6.6145832"
   height="25"
   width="25">
  <defs
     id="defs1262" />
  <sodipodi:namedview
     inkscape:window-maximized="0"
     inkscape:window-y="28"
     inkscape:window-x="0"
     inkscape:window-height="872"
     inkscape:window-width="1440"
     units="px"
     showgrid="false"
     inkscape:document-rotation="0"
     inkscape:current-layer="layer1-0"
     inkscape:document-units="mm"
     inkscape:cy="34.585807"
     inkscape:cx="51.330963"
     inkscape:zoom="5.6"
     inkscape:pageshadow="2"
     inkscape:pageopacity="0.0"
     borderopacity="1.0"
     bordercolor="#666666"
     pagecolor="#ffffff"
     id="base" />
  <metadata
     id="metadata1265">
    <rdf:RDF>
      <cc:Work
         rdf:about="">
        <dc:format>image/svg+xml</dc:format>
        <dc:type
           rdf:resource="http://purl.org/dc/dcmitype/StillImage" />
        <dc:title></dc:title>
      </cc:Work>
    </rdf:RDF>
  </metadata>
  <g
     id="layer1"
     inkscape:groupmode="layer"
     inkscape:label="Capa 1">
    <g
       transform="translate(8.4572178,0.70870894)"
       id="layer2"
       inkscape:label="Capa 2" />
    <g
       transform="translate(7.4650303,3.1183072)"
       id="layer1-0"
       inkscape:label="Capa 1"
       style="display:inline">
      <g
         style="fill:#ffffff;fill-opacity:1"
         transform="matrix(0.14220641,0,0,0.13910027,-6.4312766,-2.0355917)"
         id="about">
        <path
           style="fill:#ffffff;fill-opacity:1"
           d="M 16,16 A 7,7 0 1 0 9,9 7,7 0 0 0 16,16 Z M 16,4 a 5,5 0 1 1 -5,5 5,5 0 0 1 5,-5 z"
           id="path421" />
        <path
           style="fill:#ffffff;fill-opacity:1"
           d="M 17,18 H 15 A 11,11 0 0 0 4,29 1,1 0 0 0 5,30 H 27 A 1,1 0 0 0 28,29 11,11 0 0 0 17,18 Z M 6.06,28 A 9,9 0 0 1 15,20 h 2 a 9,9 0 0 1 8.94,8 z"
           id="path423" />
      </g>
      <ellipse
         style="fill:#ffffff;fill-opacity:1;stroke:none;stroke-width:0.463677;stroke-miterlimit:4;stroke-dasharray:none;stroke-opacity:1;stop-color:#000000"
         id="path897"
         cx="-4.2006307"
         cy="-0.75764483"
         rx="0.68233836"
         ry="0.77281874" />
      <rect
         style="fill:#ffffff;fill-opacity:1;stroke:none;stroke-width:0.421934;stroke-miterlimit:4;stroke-dasharray:none;stroke-opacity:1;stop-color:#000000"
         id="rect907"
         width="1.4940971"
         height="1.246859"
         x="-4.9188786"
         y="0.68261081"
         ry="0" />
      <path
         style="fill:#ffffff;fill-opacity:1;stroke:none;stroke-width:0.16560100000000000px;stroke-linecap:butt;stroke-linejoin:miter;stroke-opacity:1"
         d="M -4.9188784,1.929468 -5.8208937,1.8592143 -4.9188784,0.68260734 Z"
         id="path911" />
      <path
         id="path911-5"
         d="M -3.5188379,1.929468 -2.7424441,1.859214 -3.5188379,0.68260704 Z"
         style="display:inline;fill:#ffffff;fill-opacity:1;stroke:none;stroke-width:0.15363800000000000px;stroke-linecap:butt;stroke-linejoin:miter;stroke-opacity:1" />
    </g>
  </g>
</svg>
